<svg width="326" height="140" viewBox="0 0 326 140" fill="none" xmlns="http://www.w3.org/2000/svg">
<g clip-path="url(#clip0_231_1131)">
<path d="M325.532 6.10352e-05H0.467773V140H325.532V6.10352e-05Z" fill="white"/>
<path d="M15.148 10.0001H10.9536V110H15.148V10.0001Z" fill="#404040"/>
<path d="M19.3423 10.0001H17.2451V110H19.3423V10.0001Z" fill="#404040"/>
<path d="M25.6338 10.0001H23.5366V110H25.6338V10.0001Z" fill="#404040"/>
<path d="M38.2171 10.0001H34.0227V110H38.2171V10.0001Z" fill="#404040"/>
<path d="M42.4114 10.0001H40.3142V110H42.4114V10.0001Z" fill="#404040"/>
<path d="M50.8001 10.0001H48.7029V110H50.8001V10.0001Z" fill="#404040"/>
<path d="M61.2862 10.0001H57.0918V110H61.2862V10.0001Z" fill="#404040"/>
<path d="M69.6748 10.0001H67.5776V110H69.6748V10.0001Z" fill="#404040"/>
<path d="M78.0635 10.0001H75.9663V110H78.0635V10.0001Z" fill="#404040"/>
<path d="M82.2581 10.0001H80.1609V110H82.2581V10.0001Z" fill="#404040"/>
<path d="M90.6468 10.0001H84.3552V110H90.6468V10.0001Z" fill="#404040"/>
<path d="M101.133 10.0001H92.7439V110H101.133V10.0001Z" fill="#404040"/>
<path d="M109.521 10.0001H103.23V110H109.521V10.0001Z" fill="#404040"/>
<path d="M113.716 10.0001H111.619V110H113.716V10.0001Z" fill="#404040"/>
<path d="M122.105 10.0001H117.91V110H122.105V10.0001Z" fill="#404040"/>
<path d="M128.396 10.0001H126.299V110H128.396V10.0001Z" fill="#404040"/>
<path d="M134.688 10.0001H130.493V110H134.688V10.0001Z" fill="#404040"/>
<path d="M145.174 10.0001H138.882V110H145.174V10.0001Z" fill="#404040"/>
<path d="M153.562 10.0001H149.368V110H153.562V10.0001Z" fill="#404040"/>
<path d="M164.048 10.0001H157.757V110H164.048V10.0001Z" fill="#404040"/>
<path d="M168.243 10.0001H166.146V110H168.243V10.0001Z" fill="#404040"/>
<path d="M178.729 10.0001H172.437V110H178.729V10.0001Z" fill="#404040"/>
<path d="M182.923 10.0001H180.826V110H182.923V10.0001Z" fill="#404040"/>
<path d="M193.409 10.0001H185.02V110H193.409V10.0001Z" fill="#404040"/>
<path d="M197.603 10.0001H195.506V110H197.603V10.0001Z" fill="#404040"/>
<path d="M203.895 10.0001H199.7V110H203.895V10.0001Z" fill="#404040"/>
<path d="M212.284 10.0001H210.187V110H212.284V10.0001Z" fill="#404040"/>
<path d="M220.672 10.0001H218.575V110H220.672V10.0001Z" fill="#404040"/>
<path d="M231.158 10.0001H226.964V110H231.158V10.0001Z" fill="#404040"/>
<path d="M235.353 10.0001H233.255V110H235.353V10.0001Z" fill="#404040"/>
<path d="M243.741 10.0001H241.644V110H243.741V10.0001Z" fill="#404040"/>
<path d="M252.13 10.0001H250.033V110H252.13V10.0001Z" fill="#404040"/>
<path d="M262.616 10.0001H258.422V110H262.616V10.0001Z" fill="#404040"/>
<path d="M266.811 10.0001H264.713V110H266.811V10.0001Z" fill="#404040"/>
<path d="M277.296 10.0001H271.005V110H277.296V10.0001Z" fill="#404040"/>
<path d="M283.588 10.0001H279.394V110H283.588V10.0001Z" fill="#404040"/>
<path d="M291.977 10.0001H287.782V110H291.977V10.0001Z" fill="#404040"/>
<path d="M304.56 10.0001H298.268V110H304.56V10.0001Z" fill="#404040"/>
<path d="M308.754 10.0001H306.657V110H308.754V10.0001Z" fill="#404040"/>
<path d="M315.046 10.0001H310.851V110H315.046V10.0001Z" fill="#404040"/>
<path d="M127.694 120.213H129.329C129.465 120.213 129.581 120.262 129.674 120.359C129.772 120.453 129.821 120.568 129.821 120.705C129.821 120.85 129.768 120.971 129.663 121.068C129.561 121.162 129.45 121.209 129.329 121.209H127.77C127.618 121.209 127.485 121.281 127.372 121.426L125.989 123.201C125.872 123.342 125.813 123.537 125.813 123.787V126.512C125.813 126.652 125.86 126.772 125.954 126.869C126.051 126.967 126.168 127.016 126.305 127.016H128.309C128.442 127.016 128.557 126.967 128.655 126.869C128.752 126.772 128.801 126.656 128.801 126.523V125.457H127.782C127.641 125.457 127.524 125.41 127.43 125.316C127.336 125.219 127.29 125.102 127.29 124.965C127.29 124.828 127.336 124.713 127.43 124.619C127.524 124.522 127.641 124.473 127.782 124.473H129.786V126.523C129.786 126.93 129.641 127.277 129.352 127.566C129.063 127.856 128.715 128 128.309 128H126.305C125.895 128 125.543 127.856 125.25 127.566C124.961 127.277 124.817 126.93 124.817 126.523V123.799C124.817 123.311 124.948 122.898 125.209 122.563L126.663 120.717C126.768 120.576 126.915 120.457 127.102 120.359C127.293 120.262 127.491 120.213 127.694 120.213ZM132.575 120.213H136.559C136.688 120.213 136.801 120.262 136.899 120.359C137 120.457 137.051 120.572 137.051 120.705C137.051 120.842 137.002 120.961 136.905 121.063C136.807 121.16 136.692 121.209 136.559 121.209H135.071V127.016H136.559C136.696 127.016 136.811 127.065 136.905 127.162C137.002 127.256 137.051 127.371 137.051 127.508C137.051 127.645 137.002 127.762 136.905 127.859C136.807 127.953 136.692 128 136.559 128H132.575C132.438 128 132.321 127.953 132.223 127.859C132.129 127.762 132.083 127.645 132.083 127.508C132.083 127.371 132.129 127.256 132.223 127.162C132.321 127.065 132.438 127.016 132.575 127.016H134.086V121.209H132.575C132.438 121.209 132.321 121.16 132.223 121.063C132.129 120.965 132.083 120.85 132.083 120.717C132.083 120.576 132.129 120.457 132.223 120.359C132.321 120.262 132.438 120.213 132.575 120.213ZM143.813 127.988H139.336V124.59C139.336 124.316 139.432 124.082 139.624 123.887C139.819 123.691 140.051 123.594 140.321 123.594H143.309V121.197H139.793C139.653 121.197 139.536 121.15 139.442 121.057C139.348 120.959 139.301 120.842 139.301 120.705C139.301 120.568 139.348 120.453 139.442 120.359C139.536 120.262 139.653 120.213 139.793 120.213H143.309C143.583 120.213 143.817 120.311 144.012 120.506C144.208 120.697 144.305 120.928 144.305 121.197V123.594C144.305 123.871 144.208 124.107 144.012 124.303C143.817 124.494 143.583 124.59 143.309 124.59H140.321V127.004H143.813C143.946 127.004 144.061 127.053 144.159 127.15C144.256 127.244 144.305 127.359 144.305 127.496C144.305 127.633 144.256 127.75 144.159 127.848C144.061 127.941 143.946 127.988 143.813 127.988ZM149.819 127.496V125.445H146.854V120.705C146.854 120.568 146.903 120.451 147 120.354C147.102 120.252 147.221 120.201 147.358 120.201C147.491 120.201 147.606 120.252 147.704 120.354C147.801 120.451 147.85 120.568 147.85 120.705V124.449H149.819V121.566C149.819 121.43 149.866 121.313 149.959 121.215C150.057 121.113 150.174 121.063 150.311 121.063C150.448 121.063 150.563 121.113 150.657 121.215C150.754 121.313 150.803 121.43 150.803 121.566V124.449C150.94 124.449 151.055 124.498 151.149 124.596C151.247 124.69 151.295 124.805 151.295 124.941C151.295 125.078 151.247 125.195 151.149 125.293C151.055 125.387 150.94 125.434 150.803 125.434V127.496C150.803 127.633 150.754 127.75 150.657 127.848C150.559 127.941 150.444 127.988 150.311 127.988C150.174 127.988 150.057 127.941 149.959 127.848C149.866 127.75 149.819 127.633 149.819 127.496ZM154.313 127.004H155.825V121.197H154.336C154.2 121.197 154.083 121.15 153.985 121.057C153.891 120.959 153.844 120.842 153.844 120.705C153.844 120.568 153.891 120.453 153.985 120.359C154.083 120.262 154.2 120.213 154.336 120.213H156.809V127.004H157.793V124.953C157.793 124.82 157.84 124.705 157.934 124.607C158.032 124.51 158.149 124.461 158.286 124.461C158.422 124.461 158.538 124.51 158.631 124.607C158.729 124.701 158.778 124.816 158.778 124.953V127.496C158.778 127.633 158.729 127.75 158.631 127.848C158.538 127.941 158.422 127.988 158.286 127.988H154.313C154.176 127.988 154.059 127.94 153.961 127.842C153.868 127.74 153.821 127.621 153.821 127.484C153.821 127.352 153.868 127.238 153.961 127.145C154.059 127.051 154.176 127.004 154.313 127.004ZM165.575 127.988H161.098V124.59C161.098 124.316 161.194 124.082 161.385 123.887C161.581 123.691 161.813 123.594 162.083 123.594H165.071V121.197H161.555C161.415 121.197 161.297 121.15 161.204 121.057C161.11 120.959 161.063 120.842 161.063 120.705C161.063 120.568 161.11 120.453 161.204 120.359C161.297 120.262 161.415 120.213 161.555 120.213H165.071C165.344 120.213 165.579 120.311 165.774 120.506C165.969 120.697 166.067 120.928 166.067 121.197V123.594C166.067 123.871 165.969 124.107 165.774 124.303C165.579 124.494 165.344 124.59 165.071 124.59H162.083V127.004H165.575C165.708 127.004 165.823 127.053 165.92 127.15C166.018 127.244 166.067 127.359 166.067 127.496C166.067 127.633 166.018 127.75 165.92 127.848C165.823 127.941 165.708 127.988 165.575 127.988ZM172.829 127.988H168.352V124.59C168.352 124.316 168.448 124.082 168.639 123.887C168.834 123.691 169.067 123.594 169.336 123.594H172.325V121.197H168.809C168.668 121.197 168.551 121.15 168.458 121.057C168.364 120.959 168.317 120.842 168.317 120.705C168.317 120.568 168.364 120.453 168.458 120.359C168.551 120.262 168.668 120.213 168.809 120.213H172.325C172.598 120.213 172.833 120.311 173.028 120.506C173.223 120.697 173.321 120.928 173.321 121.197V123.594C173.321 123.871 173.223 124.107 173.028 124.303C172.833 124.494 172.598 124.59 172.325 124.59H169.336V127.004H172.829C172.961 127.004 173.077 127.053 173.174 127.15C173.272 127.244 173.321 127.359 173.321 127.496C173.321 127.633 173.272 127.75 173.174 127.848C173.077 127.941 172.961 127.988 172.829 127.988ZM180.083 127.988H175.606V124.59C175.606 124.316 175.702 124.082 175.893 123.887C176.088 123.691 176.321 123.594 176.59 123.594H179.579V121.197H176.063C175.922 121.197 175.805 121.15 175.711 121.057C175.618 120.959 175.571 120.842 175.571 120.705C175.571 120.568 175.618 120.453 175.711 120.359C175.805 120.262 175.922 120.213 176.063 120.213H179.579C179.852 120.213 180.086 120.311 180.282 120.506C180.477 120.697 180.575 120.928 180.575 121.197V123.594C180.575 123.871 180.477 124.107 180.282 124.303C180.086 124.494 179.852 124.59 179.579 124.59H176.59V127.004H180.083C180.215 127.004 180.331 127.053 180.428 127.15C180.526 127.244 180.575 127.359 180.575 127.496C180.575 127.633 180.526 127.75 180.428 127.848C180.331 127.941 180.215 127.988 180.083 127.988ZM183.352 120.213H185.297C185.551 120.217 185.797 120.299 186.036 120.459C186.278 120.619 186.456 120.813 186.569 121.039L187.542 123.008C187.725 123.363 187.817 123.734 187.817 124.121C187.817 124.481 187.719 124.85 187.524 125.229L186.545 127.174C186.42 127.424 186.241 127.625 186.006 127.777C185.772 127.926 185.51 128 185.221 128H183.34C183.204 128 183.086 127.951 182.989 127.854C182.895 127.756 182.848 127.641 182.848 127.508C182.848 127.371 182.895 127.254 182.989 127.156C183.086 127.055 183.204 127.004 183.34 127.004H183.856V121.209H183.352C183.215 121.209 183.098 121.16 183 121.063C182.907 120.961 182.86 120.842 182.86 120.705C182.86 120.572 182.907 120.457 183 120.359C183.098 120.262 183.215 120.213 183.352 120.213ZM184.84 121.209V127.016H185.186C185.405 127.016 185.569 126.908 185.678 126.693L186.651 124.76C186.772 124.506 186.833 124.293 186.833 124.121C186.833 123.906 186.784 123.703 186.686 123.512L185.678 121.508C185.573 121.309 185.401 121.209 185.163 121.209H184.84ZM194.59 121.209H191.11V123.606H192.61C192.743 123.606 192.858 123.654 192.956 123.752C193.053 123.85 193.102 123.965 193.102 124.098C193.102 124.238 193.053 124.357 192.956 124.455C192.862 124.553 192.747 124.602 192.61 124.602H191.11V127.016H194.602C194.735 127.016 194.85 127.065 194.948 127.162C195.045 127.256 195.094 127.371 195.094 127.508C195.094 127.645 195.043 127.762 194.942 127.859C194.844 127.953 194.727 128 194.59 128H190.126V120.213H194.59C194.727 120.213 194.844 120.264 194.942 120.365C195.043 120.463 195.094 120.58 195.094 120.717C195.094 120.85 195.043 120.965 194.942 121.063C194.844 121.16 194.727 121.209 194.59 121.209ZM200.081 127.016H201.856C201.993 127.016 202.11 127.065 202.208 127.162C202.309 127.256 202.36 127.371 202.36 127.508C202.36 127.645 202.309 127.762 202.208 127.859C202.11 127.953 201.993 128 201.856 128H200.016C199.782 128 199.54 127.926 199.29 127.777C199.04 127.629 198.866 127.463 198.768 127.279L197.631 125.082C197.479 124.766 197.403 124.441 197.403 124.109C197.403 123.742 197.475 123.424 197.62 123.154L198.768 120.981C198.877 120.777 199.047 120.6 199.278 120.447C199.508 120.291 199.731 120.213 199.946 120.213H201.891C202.028 120.213 202.143 120.262 202.237 120.359C202.334 120.457 202.383 120.572 202.383 120.705C202.383 120.842 202.334 120.961 202.237 121.063C202.143 121.16 202.028 121.209 201.891 121.209H200.016C199.86 121.209 199.733 121.301 199.635 121.484L198.545 123.523C198.459 123.684 198.417 123.873 198.417 124.092C198.417 124.322 198.463 124.525 198.557 124.701L199.6 126.705C199.698 126.912 199.858 127.016 200.081 127.016Z" fill="#404040"/>
</g>
<defs>
<clipPath id="clip0_231_1131">
<rect width="325.064" height="140" fill="white" transform="translate(0.467773 6.10352e-05)"/>
</clipPath>
</defs>
</svg>
