<svg width="25" height="25" viewBox="0 0 25 25" fill="none" xmlns="http://www.w3.org/2000/svg">
<path fill-rule="evenodd" clip-rule="evenodd" d="M12.9958 22.9959C18.5187 22.9959 22.9958 18.5188 22.9958 12.9959C22.9958 7.47309 18.5187 2.99594 12.9958 2.99594C7.473 2.99594 2.99585 7.47309 2.99585 12.9959C2.99585 18.5188 7.473 22.9959 12.9958 22.9959ZM17.5879 10.4564C17.8422 10.1295 17.7833 9.65826 17.4563 9.40396C17.1294 9.14966 16.6581 9.20856 16.4038 9.53552L12.3968 14.6874C12.3077 14.8019 12.1401 14.8168 12.0323 14.7197L9.49758 12.4385C9.1897 12.1614 8.71548 12.1864 8.43839 12.4943C8.16129 12.8021 8.18625 13.2764 8.49413 13.5534L11.0288 15.8347C11.7839 16.5143 12.9572 16.4102 13.5809 15.6083L17.5879 10.4564Z" fill="#E14658"/>
</svg>
