<svg width="223" height="62" viewBox="0 0 223 62" fill="none" xmlns="http://www.w3.org/2000/svg">
<path fill-rule="evenodd" clip-rule="evenodd" d="M205.438 17.9376V37.5429L189.125 53.8559C189.172 52.4721 189.192 50.9905 189.192 49.3124V17.9376H182.088C177.812 17.9376 174.918 18.0691 171.564 18.398V3.46703C174.984 3.79591 177.944 3.92746 181.956 3.92746H212.41C216.883 3.92746 219.711 3.79591 223 3.46703V18.398C219.645 18.0691 217.146 17.9376 212.41 17.9376H205.438ZM8.42017 43.1904C8.85776 46.3369 9.18837 48.0506 9.88824 49.6413C11.2037 53.0616 13.3085 55.6268 16.2027 57.5343C19.9518 60.0337 25.9374 61.4808 32.3176 61.4808C38.4347 61.4808 44.486 60.1653 47.9063 58.1263C53.2341 54.9033 56.1282 49.5755 56.1282 42.8664C56.1282 33.329 50.932 27.6723 40.1448 25.1729C32.2518 23.5285 30.2786 23.0681 29.1604 22.7392C29.0859 22.7168 29.0128 22.6937 28.941 22.6697L17.4507 34.1599C19.6204 35.4716 21.6326 36.0844 27.9107 37.4728C33.1069 38.6568 35.8037 39.3803 36.8561 39.8407C38.4347 40.4985 39.2898 41.814 39.2898 43.5899C39.2898 46.5498 36.8561 48.26 32.7122 48.26C29.8839 48.26 27.516 47.3391 26.1347 45.629C25.2139 44.445 24.8192 43.4584 24.5561 41.3536L8.78224 42.8284L8.42017 43.1904ZM62.1744 60.0995H79.1444C78.8155 57.0081 78.6182 53.4562 78.6182 49.3124V42.5375H87.6294C100.916 42.5375 109.006 34.9734 109.006 22.6734C109.006 10.6365 101.311 3.92746 87.4979 3.92746H72.6984C68.16 3.92746 65.3316 3.86169 62.1744 3.73014C62.5691 7.0189 62.7006 10.1761 62.7006 14.0568V49.5755C62.7006 53.7851 62.5691 57.0081 62.1744 60.0995ZM86.577 29.1194H78.6182V17.3456H86.577C90.5235 17.3456 92.6941 19.4504 92.6941 23.1338C92.6941 26.883 90.392 29.1194 86.577 29.1194ZM112.88 31.9477C112.88 49.9701 123.733 61.4808 140.769 61.4808C157.279 61.4808 168.461 49.5097 168.461 31.6846C168.461 14.0568 157.608 2.67773 140.769 2.67773C123.733 2.67773 112.88 14.1226 112.88 31.9477ZM152.017 31.8819C152.017 41.814 147.741 47.8653 140.703 47.8653C133.6 47.8653 129.258 41.814 129.258 31.8819C129.258 22.0157 133.534 16.1617 140.703 16.1617C147.807 16.1617 152.017 22.0157 152.017 31.8819Z" fill="#E14658"/>
<path d="M9.66808 13.9092V16.5332C9.06471 16.4631 8.55955 16.435 7.3528 16.435H2.9327C1.86626 16.435 1.47337 16.449 0.869987 16.4771C0.95418 15.9158 0.982244 15.3966 0.982244 14.4284V6.76691C0.982244 5.89692 0.95418 5.4058 0.869987 4.71823C1.4453 4.74629 1.8382 4.76033 2.9327 4.76033H7.40892C8.3631 4.76033 8.84019 4.73226 9.4997 4.6621V7.2861C8.85422 7.21594 8.34907 7.18787 7.40892 7.18787H3.76059V9.25058H6.79151C7.71763 9.25058 8.0544 9.23655 8.89632 9.15236V11.7483C8.23681 11.6781 7.75972 11.6501 6.79151 11.6501H3.76059V14.0074H7.38086C8.4473 14.0074 9.06471 13.9794 9.66808 13.9092ZM13.9411 6.27579L15.9757 13.0252C16.088 13.4041 16.088 13.4041 16.2423 13.9934C16.4107 13.376 16.4388 13.2918 16.5089 13.0252L18.5436 6.27579C18.726 5.63031 18.8242 5.23742 18.8663 4.76033H22.1638C21.9674 5.18129 21.8411 5.50403 21.4903 6.47224L18.5155 14.9195C18.277 15.6071 18.1366 16.0842 18.0665 16.435H14.4182C14.348 16.0702 14.2077 15.5931 13.9691 14.9195L10.9803 6.47224C10.6997 5.65838 10.5593 5.30758 10.3208 4.76033H13.6043C13.6604 5.20935 13.7867 5.7566 13.9411 6.27579ZM31.9357 13.9092V16.5332C31.3324 16.4631 30.8272 16.435 29.6205 16.435H25.2004C24.1339 16.435 23.741 16.449 23.1376 16.4771C23.2218 15.9158 23.2499 15.3966 23.2499 14.4284V6.76691C23.2499 5.89692 23.2218 5.4058 23.1376 4.71823C23.713 4.74629 24.1059 4.76033 25.2004 4.76033H29.6766C30.6308 4.76033 31.1079 4.73226 31.7674 4.6621V7.2861C31.1219 7.21594 30.6167 7.18787 29.6766 7.18787H26.0282V9.25058H29.0592C29.9853 9.25058 30.3221 9.23655 31.164 9.15236V11.7483C30.5045 11.6781 30.0274 11.6501 29.0592 11.6501H26.0282V14.0074H29.6485C30.715 14.0074 31.3324 13.9794 31.9357 13.9092ZM37.4014 6.51433L40.0675 10.4994C40.4745 11.1028 40.7411 11.5518 41.0778 12.1693C41.0217 11.5238 40.9936 10.8783 40.9936 10.0925V6.8932C40.9936 5.96708 40.9656 5.4058 40.8814 4.76033H43.8702C43.786 5.39177 43.758 5.98111 43.758 6.8932V14.3442C43.758 15.2002 43.8001 15.8456 43.8702 16.435H40.7972C40.5446 15.9018 40.2219 15.3826 39.7448 14.6529L37.1489 10.738C36.77 10.1767 36.5315 9.75574 36.1386 9.01204C36.2087 9.64348 36.2368 10.4152 36.2368 11.1028V14.246C36.2368 15.2142 36.2648 15.8316 36.349 16.435H33.3602C33.4444 15.8877 33.4725 15.2703 33.4725 14.232V6.8511C33.4725 6.03724 33.4444 5.4058 33.3602 4.76033H36.4052C36.5455 5.13919 36.8542 5.70047 37.4014 6.51433ZM51.6162 7.244V14.3162C51.6162 15.1581 51.6443 15.7755 51.7285 16.435H48.6274C48.7116 15.7755 48.7397 15.2002 48.7397 14.3162V7.244H47.0839C46.1999 7.244 45.9613 7.25803 44.9651 7.34222V4.6621C45.4281 4.71823 46.1999 4.76033 47.0558 4.76033H53.2019C54.1841 4.76033 54.7454 4.73226 55.3909 4.6621V7.34222C54.7594 7.27206 54.2122 7.244 53.2019 7.244H51.6162Z" fill="#E14658"/>
</svg>
