<svg width="16" height="16" viewBox="0 0 16 16" fill="none" xmlns="http://www.w3.org/2000/svg">
<path d="M8.00017 8.95334C8.27332 8.95334 8.54379 8.89953 8.79615 8.795C9.0485 8.69047 9.2778 8.53726 9.47095 8.34412C9.66409 8.15097 9.81731 7.92167 9.92184 7.66932C10.0264 7.41696 10.0802 7.14648 10.0802 6.87334C10.0802 6.60019 10.0264 6.32971 9.92184 6.07735C9.81731 5.825 9.66409 5.5957 9.47095 5.40255C9.2778 5.20941 9.0485 5.0562 8.79615 4.95167C8.54379 4.84714 8.27332 4.79333 8.00017 4.79333C7.44852 4.79333 6.91946 5.01248 6.52938 5.40255C6.13931 5.79263 5.92017 6.32168 5.92017 6.87334C5.92017 7.42499 6.13931 7.95404 6.52938 8.34412C6.91946 8.73419 7.44852 8.95334 8.00017 8.95334Z" stroke="#46C5E1" stroke-width="1.03846"/>
<path d="M2.41306 5.66004C3.72639 -0.113291 12.2797 -0.106624 13.5864 5.66671C14.3531 9.05338 12.2464 11.92 10.3997 13.6934C9.75444 14.3157 8.89289 14.6635 7.99639 14.6635C7.09989 14.6635 6.23834 14.3157 5.59306 13.6934C3.75306 11.92 1.64639 9.04671 2.41306 5.66004Z" stroke="#46C5E1" stroke-width="1.03846"/>
</svg>
